<svg id="Layer_1" data-name="Layer 1" xmlns="http://www.w3.org/2000/svg" xmlns:xlink="http://www.w3.org/1999/xlink" viewBox="0 0 250 134">
  <defs>
    <style>
      .cls-1 {
        fill: url(#linear-gradient);
      }

      .cls-2 {
        fill: url(#linear-gradient-2);
      }

      .cls-3 {
        fill: url(#linear-gradient-3);
      }

      .cls-4 {
        fill: url(#linear-gradient-4);
      }

      .cls-5 {
        fill: url(#linear-gradient-5);
      }

      .cls-6 {
        fill: url(#linear-gradient-6);
      }

      .cls-7 {
        fill: url(#linear-gradient-7);
      }

      .cls-8 {
        fill: url(#linear-gradient-8);
      }

      .cls-9 {
        fill: url(#linear-gradient-9);
      }

      .cls-10 {
        fill: url(#linear-gradient-10);
      }

      .cls-11 {
        fill: url(#linear-gradient-11);
      }

      .cls-12 {
        fill: url(#linear-gradient-12);
      }

      .cls-13 {
        fill: url(#linear-gradient-13);
      }

      .cls-14 {
        fill: url(#linear-gradient-14);
      }

      .cls-15 {
        fill: url(#linear-gradient-15);
      }

      .cls-16 {
        fill: url(#linear-gradient-16);
      }

      .cls-17 {
        fill: url(#linear-gradient-17);
      }

      .cls-18 {
        fill: url(#linear-gradient-18);
      }

      .cls-19 {
        fill: url(#linear-gradient-19);
      }

      .cls-20 {
        fill: url(#linear-gradient-20);
      }

      .cls-21 {
        fill: url(#linear-gradient-21);
      }

      .cls-22 {
        fill: url(#linear-gradient-22);
      }

      .cls-23 {
        font-size: 31px;
        font-family: Helvetica-Light, Helvetica;
        font-weight: 300;
      }
    </style>
    <linearGradient id="linear-gradient" x1="146.92" y1="-49.32" x2="146.11" y2="-277.46" gradientTransform="translate(-20.99 179.51)" gradientUnits="userSpaceOnUse">
      <stop offset="0.26" stop-color="#bee4fa"/>
      <stop offset="0.32" stop-color="#c6e7f9"/>
      <stop offset="0.43" stop-color="#ddeef7"/>
      <stop offset="0.52" stop-color="#f5f5f5"/>
    </linearGradient>
    <linearGradient id="linear-gradient-2" x1="195.1" y1="79.5" x2="194.71" y2="-31.07" gradientUnits="userSpaceOnUse">
      <stop offset="0" stop-color="#bee4fa"/>
      <stop offset="0.09" stop-color="#c5e6f9"/>
      <stop offset="0.22" stop-color="#d8ecf8"/>
      <stop offset="0.36" stop-color="#f5f5f5"/>
    </linearGradient>
    <linearGradient id="linear-gradient-3" x1="78.65" y1="79.5" x2="78.26" y2="-31.07" xlink:href="#linear-gradient-2"/>
    <linearGradient id="linear-gradient-4" x1="110.78" y1="79.5" x2="110.39" y2="-31.07" xlink:href="#linear-gradient-2"/>
    <linearGradient id="linear-gradient-5" x1="136.02" y1="79.5" x2="135.63" y2="-31.07" xlink:href="#linear-gradient-2"/>
    <linearGradient id="linear-gradient-6" x1="162.97" y1="79.5" x2="162.57" y2="-31.07" xlink:href="#linear-gradient-2"/>
    <linearGradient id="linear-gradient-7" x1="182.27" y1="79.5" x2="181.87" y2="-31.07" xlink:href="#linear-gradient-2"/>
    <linearGradient id="linear-gradient-8" x1="57.29" y1="79.5" x2="56.9" y2="-31.07" xlink:href="#linear-gradient-2"/>
    <linearGradient id="linear-gradient-9" x1="62.96" y1="79.5" x2="62.56" y2="-31.07" xlink:href="#linear-gradient-2"/>
    <linearGradient id="linear-gradient-10" x1="175.05" y1="79.5" x2="174.66" y2="-31.07" xlink:href="#linear-gradient-2"/>
    <linearGradient id="linear-gradient-11" x1="148.78" y1="79.5" x2="148.38" y2="-31.07" xlink:href="#linear-gradient-2"/>
    <linearGradient id="linear-gradient-12" x1="123.84" y1="79.5" x2="123.45" y2="-31.07" xlink:href="#linear-gradient-2"/>
    <linearGradient id="linear-gradient-13" x1="93.69" y1="79.5" x2="93.3" y2="-31.07" xlink:href="#linear-gradient-2"/>
    <linearGradient id="linear-gradient-14" x1="87.19" y1="79.5" x2="86.79" y2="-31.07" xlink:href="#linear-gradient-2"/>
    <linearGradient id="linear-gradient-15" x1="70.11" y1="79.5" x2="69.71" y2="-31.07" xlink:href="#linear-gradient-2"/>
    <linearGradient id="linear-gradient-16" x1="118" y1="79.5" x2="117.61" y2="-31.07" xlink:href="#linear-gradient-2"/>
    <linearGradient id="linear-gradient-17" x1="102.24" y1="79.5" x2="101.85" y2="-31.07" xlink:href="#linear-gradient-2"/>
    <linearGradient id="linear-gradient-18" x1="155.98" y1="79.5" x2="155.58" y2="-31.07" xlink:href="#linear-gradient-2"/>
    <linearGradient id="linear-gradient-19" x1="142.92" y1="79.5" x2="142.52" y2="-31.07" xlink:href="#linear-gradient-2"/>
    <linearGradient id="linear-gradient-20" x1="169.64" y1="79.5" x2="169.24" y2="-31.07" xlink:href="#linear-gradient-2"/>
    <linearGradient id="linear-gradient-21" x1="188.11" y1="79.5" x2="187.72" y2="-31.07" xlink:href="#linear-gradient-2"/>
    <linearGradient id="linear-gradient-22" x1="130.84" y1="79.5" x2="130.44" y2="-31.07" xlink:href="#linear-gradient-2"/>
  </defs>
  <title>Artboard 1</title>
  <rect class="cls-1" x="9.44" y="22" width="232.56" height="97.62" rx="48.81" transform="translate(251.44 141.62) rotate(180)"/>
  <ellipse class="cls-2" cx="195" cy="50.72" rx="32.13" ry="23.77"/>
  <ellipse class="cls-3" cx="78.55" cy="50.72" rx="32.13" ry="23.77"/>
  <ellipse class="cls-4" cx="110.68" cy="50.72" rx="32.13" ry="23.77"/>
  <ellipse class="cls-5" cx="135.92" cy="50.72" rx="32.13" ry="23.77"/>
  <ellipse class="cls-6" cx="162.87" cy="50.72" rx="32.13" ry="23.77"/>
  <ellipse class="cls-7" cx="182.17" cy="50.72" rx="32.13" ry="23.77"/>
  <ellipse class="cls-8" cx="57.19" cy="50.72" rx="32.13" ry="23.77"/>
  <ellipse class="cls-9" cx="62.86" cy="50.72" rx="32.13" ry="23.77"/>
  <ellipse class="cls-10" cx="174.95" cy="50.72" rx="32.13" ry="23.77"/>
  <ellipse class="cls-11" cx="148.67" cy="50.72" rx="32.13" ry="23.77"/>
  <ellipse class="cls-12" cx="123.74" cy="50.72" rx="32.13" ry="23.77"/>
  <ellipse class="cls-13" cx="93.59" cy="50.72" rx="32.13" ry="23.77"/>
  <ellipse class="cls-14" cx="87.09" cy="50.72" rx="32.13" ry="23.77"/>
  <ellipse class="cls-15" cx="70" cy="50.72" rx="32.13" ry="23.77"/>
  <ellipse class="cls-16" cx="117.9" cy="50.72" rx="32.13" ry="23.77"/>
  <ellipse class="cls-17" cx="102.14" cy="50.72" rx="32.13" ry="23.77"/>
  <ellipse class="cls-18" cx="155.87" cy="50.72" rx="32.13" ry="23.77"/>
  <ellipse class="cls-19" cx="142.81" cy="50.72" rx="32.13" ry="23.77"/>
  <ellipse class="cls-20" cx="169.53" cy="50.72" rx="32.13" ry="23.77"/>
  <ellipse class="cls-21" cx="188.01" cy="50.72" rx="32.13" ry="23.77"/>
  <ellipse class="cls-22" cx="130.73" cy="50.72" rx="32.13" ry="23.77"/>
  <text class="cls-23" transform="translate(44.53 74.11)">Se portfolio</text>
</svg>
